# xmcd CD database file
#
# Track frame offsets:
#	150
#	21647
#	46765
#	67247
#	89647
#	110937
#	136755
#	154202
#	177537
#	199777
#	222665
#	244340
#	253182
#
# Disc length: 3588 seconds
#
# Revision: 7
# Processed by: cddbd v1.5PL3 Copyright (c) Steve Scherf et al.
# Submitted via: CDex 1.51
#
DISCID=d50e020d
DTITLE=THE GOSPELLERS - Love Notes
DYEAR=2001
DGENRE=J-Pop
TTITLE0=Promise -a cappella-
TTITLE1=永遠に
TTITLE2=NO MORE TEARS
TTITLE3=八月の鯨
TTITLE4=U'll Be Mine -acoustic version-
TTITLE5=AIR MAIL
TTITLE6=t.4.2.
TTITLE7=渇き
TTITLE8=LOSER
TTITLE9=I LOVE YOU BABY
TTITLE10=あたらしい世界
TTITLE11=カーテンコール
TTITLE12=ひとり
EXTD=YEAR: 2001
EXTT0=
EXTT1=
EXTT2=
EXTT3=
EXTT4=
EXTT5=
EXTT6=
EXTT7=
EXTT8=
EXTT9=
EXTT10=
EXTT11=
EXTT12=
PLAYORDER=
